<svg width="302" height="173" viewBox="0 0 302 173" fill="none" xmlns="http://www.w3.org/2000/svg">
<path d="M259.009 168.995L0.0277049 99.4905L26.6861 0.000143564L259.009 168.995Z" fill="#84C4FF"/>
<circle cx="272.936" cy="170.546" r="2" transform="rotate(-165 272.936 170.546)" fill="#222222"/>
<circle cx="278.63" cy="149.295" r="2" transform="rotate(-165 278.63 149.295)" fill="#222222"/>
<circle cx="284.324" cy="128.045" r="2" transform="rotate(-165 284.324 128.045)" fill="#222222"/>
<circle cx="290.018" cy="106.794" r="2" transform="rotate(-165 290.018 106.794)" fill="#222222"/>
<circle cx="295.712" cy="85.5442" r="2" transform="rotate(-165 295.712 85.5442)" fill="#222222"/>
<circle cx="266.124" cy="157.332" r="2" transform="rotate(-165 266.124 157.332)" fill="#222222"/>
<circle cx="271.818" cy="136.082" r="2" transform="rotate(-165 271.818 136.082)" fill="#222222"/>
<circle cx="277.512" cy="114.832" r="2" transform="rotate(-165 277.512 114.832)" fill="#222222"/>
<circle cx="283.206" cy="93.581" r="2" transform="rotate(-165 283.206 93.581)" fill="#222222"/>
<circle cx="288.9" cy="72.3308" r="2" transform="rotate(-165 288.9 72.3308)" fill="#222222"/>
<circle cx="246.806" cy="152.156" r="2" transform="rotate(-165 246.806 152.156)" fill="#222222"/>
<circle cx="252.5" cy="130.905" r="2" transform="rotate(-165 252.5 130.905)" fill="#222222"/>
<circle cx="258.194" cy="109.655" r="2" transform="rotate(-165 258.194 109.655)" fill="#222222"/>
<circle cx="263.888" cy="88.4048" r="2" transform="rotate(-165 263.888 88.4048)" fill="#222222"/>
<circle cx="269.582" cy="67.1545" r="2" transform="rotate(-165 269.582 67.1545)" fill="#222222"/>
<circle cx="227.487" cy="146.979" r="2" transform="rotate(-165 227.487 146.979)" fill="#222222"/>
<circle cx="233.181" cy="125.729" r="2" transform="rotate(-165 233.181 125.729)" fill="#222222"/>
<circle cx="238.875" cy="104.479" r="2" transform="rotate(-165 238.875 104.479)" fill="#222222"/>
<circle cx="244.569" cy="83.2285" r="2" transform="rotate(-165 244.569 83.2285)" fill="#222222"/>
<circle cx="250.263" cy="61.978" r="2" transform="rotate(-165 250.263 61.978)" fill="#222222"/>
<circle cx="208.169" cy="141.803" r="2" transform="rotate(-165 208.169 141.803)" fill="#222222"/>
<circle cx="213.863" cy="120.553" r="2" transform="rotate(-165 213.863 120.553)" fill="#222222"/>
<circle cx="219.557" cy="99.3025" r="2" transform="rotate(-165 219.557 99.3025)" fill="#222222"/>
<circle cx="225.251" cy="78.052" r="2" transform="rotate(-165 225.251 78.052)" fill="#222222"/>
<circle cx="230.945" cy="56.8017" r="2" transform="rotate(-165 230.945 56.8017)" fill="#222222"/>
<circle cx="188.85" cy="136.627" r="2" transform="rotate(-165 188.85 136.627)" fill="#222222"/>
<circle cx="194.544" cy="115.376" r="2" transform="rotate(-165 194.544 115.376)" fill="#222222"/>
<circle cx="200.238" cy="94.1259" r="2" transform="rotate(-165 200.238 94.1259)" fill="#222222"/>
<circle cx="205.932" cy="72.8757" r="2" transform="rotate(-165 205.932 72.8757)" fill="#222222"/>
<circle cx="211.626" cy="51.6252" r="2" transform="rotate(-165 211.626 51.6252)" fill="#222222"/>
<circle cx="169.532" cy="131.45" r="2" transform="rotate(-165 169.532 131.45)" fill="#222222"/>
<circle cx="175.226" cy="110.2" r="2" transform="rotate(-165 175.226 110.2)" fill="#222222"/>
<circle cx="180.92" cy="88.9497" r="2" transform="rotate(-165 180.92 88.9497)" fill="#222222"/>
<circle cx="186.614" cy="67.6992" r="2" transform="rotate(-165 186.614 67.6992)" fill="#222222"/>
<circle cx="192.308" cy="46.4489" r="2" transform="rotate(-165 192.308 46.4489)" fill="#222222"/>
<circle cx="150.213" cy="126.274" r="2" transform="rotate(-165 150.213 126.274)" fill="#222222"/>
<circle cx="155.907" cy="105.024" r="2" transform="rotate(-165 155.907 105.024)" fill="#222222"/>
<circle cx="161.601" cy="83.7732" r="2" transform="rotate(-165 161.601 83.7732)" fill="#222222"/>
<circle cx="167.295" cy="62.5229" r="2" transform="rotate(-165 167.295 62.5229)" fill="#222222"/>
<circle cx="172.989" cy="41.2724" r="2" transform="rotate(-165 172.989 41.2724)" fill="#222222"/>
<circle cx="130.895" cy="121.098" r="2" transform="rotate(-165 130.895 121.098)" fill="#222222"/>
<circle cx="136.588" cy="99.8471" r="2" transform="rotate(-165 136.588 99.8471)" fill="#222222"/>
<circle cx="142.283" cy="78.5969" r="2" transform="rotate(-165 142.283 78.5969)" fill="#222222"/>
<circle cx="147.977" cy="57.3464" r="2" transform="rotate(-165 147.977 57.3464)" fill="#222222"/>
<circle cx="153.671" cy="36.0962" r="2" transform="rotate(-165 153.671 36.0962)" fill="#222222"/>
<circle cx="111.576" cy="115.921" r="2" transform="rotate(-165 111.576 115.921)" fill="#222222"/>
<circle cx="117.27" cy="94.6709" r="2" transform="rotate(-165 117.27 94.6709)" fill="#222222"/>
<circle cx="122.964" cy="73.4204" r="2" transform="rotate(-165 122.964 73.4204)" fill="#222222"/>
<circle cx="128.658" cy="52.1701" r="2" transform="rotate(-165 128.658 52.1701)" fill="#222222"/>
<circle cx="134.352" cy="30.9197" r="2" transform="rotate(-165 134.352 30.9197)" fill="#222222"/>
<circle cx="92.2574" cy="110.745" r="2" transform="rotate(-165 92.2574 110.745)" fill="#222222"/>
<circle cx="97.9515" cy="89.4944" r="2" transform="rotate(-165 97.9515 89.4944)" fill="#222222"/>
<circle cx="103.646" cy="68.2441" r="2" transform="rotate(-165 103.646 68.2441)" fill="#222222"/>
<circle cx="109.339" cy="46.9936" r="2" transform="rotate(-165 109.339 46.9936)" fill="#222222"/>
<circle cx="115.034" cy="25.7434" r="2" transform="rotate(-165 115.034 25.7434)" fill="#222222"/>
<circle cx="72.9391" cy="105.568" r="2" transform="rotate(-165 72.9391 105.568)" fill="#222222"/>
<circle cx="78.6329" cy="84.3181" r="2" transform="rotate(-165 78.6329 84.3181)" fill="#222222"/>
<circle cx="84.327" cy="63.0676" r="2" transform="rotate(-165 84.327 63.0676)" fill="#222222"/>
<circle cx="90.0211" cy="41.8174" r="2" transform="rotate(-165 90.0211 41.8174)" fill="#222222"/>
<circle cx="95.7149" cy="20.5669" r="2" transform="rotate(-165 95.7149 20.5669)" fill="#222222"/>
<circle cx="53.6205" cy="100.392" r="2" transform="rotate(-165 53.6205 100.392)" fill="#222222"/>
<circle cx="59.3145" cy="79.1416" r="2" transform="rotate(-165 59.3145 79.1416)" fill="#222222"/>
<circle cx="65.0084" cy="57.8913" r="2" transform="rotate(-165 65.0084 57.8913)" fill="#222222"/>
<circle cx="70.7025" cy="36.6408" r="2" transform="rotate(-165 70.7025 36.6408)" fill="#222222"/>
<circle cx="76.3966" cy="15.3906" r="2" transform="rotate(-165 76.3966 15.3906)" fill="#222222"/>
<circle cx="34.3018" cy="95.2158" r="2" transform="rotate(-165 34.3018 95.2158)" fill="#222222"/>
<circle cx="39.9959" cy="73.9653" r="2" transform="rotate(-165 39.9959 73.9653)" fill="#222222"/>
<circle cx="45.69" cy="52.7151" r="2" transform="rotate(-165 45.69 52.7151)" fill="#222222"/>
<circle cx="51.3839" cy="31.4646" r="2" transform="rotate(-165 51.3839 31.4646)" fill="#222222"/>
<circle cx="57.078" cy="10.2143" r="2" transform="rotate(-165 57.078 10.2143)" fill="#222222"/>
<circle cx="14.9835" cy="90.0393" r="2" transform="rotate(-165 14.9835 90.0393)" fill="#222222"/>
<circle cx="20.6773" cy="68.789" r="2" transform="rotate(-165 20.6773 68.789)" fill="#222222"/>
<circle cx="26.3714" cy="47.5385" r="2" transform="rotate(-165 26.3714 47.5385)" fill="#222222"/>
<circle cx="32.0655" cy="26.2883" r="2" transform="rotate(-165 32.0655 26.2883)" fill="#222222"/>
<circle cx="37.7594" cy="5.03782" r="2" transform="rotate(-165 37.7594 5.03782)" fill="#222222"/>
<circle cx="253.618" cy="165.369" r="2" transform="rotate(-165 253.618 165.369)" fill="#222222"/>
<circle cx="259.312" cy="144.119" r="2" transform="rotate(-165 259.312 144.119)" fill="#222222"/>
<circle cx="265.006" cy="122.869" r="2" transform="rotate(-165 265.006 122.869)" fill="#222222"/>
<circle cx="270.7" cy="101.618" r="2" transform="rotate(-165 270.7 101.618)" fill="#222222"/>
<circle cx="276.394" cy="80.3679" r="2" transform="rotate(-165 276.394 80.3679)" fill="#222222"/>
<circle cx="234.299" cy="160.193" r="2" transform="rotate(-165 234.299 160.193)" fill="#222222"/>
<circle cx="239.993" cy="138.943" r="2" transform="rotate(-165 239.993 138.943)" fill="#222222"/>
<circle cx="245.687" cy="117.692" r="2" transform="rotate(-165 245.687 117.692)" fill="#222222"/>
<circle cx="251.381" cy="96.4419" r="2" transform="rotate(-165 251.381 96.4419)" fill="#222222"/>
<circle cx="257.076" cy="75.1914" r="2" transform="rotate(-165 257.076 75.1914)" fill="#222222"/>
<circle cx="214.981" cy="155.017" r="2" transform="rotate(-165 214.981 155.017)" fill="#222222"/>
<circle cx="220.675" cy="133.766" r="2" transform="rotate(-165 220.675 133.766)" fill="#222222"/>
<circle cx="226.369" cy="112.516" r="2" transform="rotate(-165 226.369 112.516)" fill="#222222"/>
<circle cx="232.063" cy="91.2654" r="2" transform="rotate(-165 232.063 91.2654)" fill="#222222"/>
<circle cx="237.757" cy="70.0151" r="2" transform="rotate(-165 237.757 70.0151)" fill="#222222"/>
<circle cx="195.662" cy="149.84" r="2" transform="rotate(-165 195.662 149.84)" fill="#222222"/>
<circle cx="201.356" cy="128.59" r="2" transform="rotate(-165 201.356 128.59)" fill="#222222"/>
<circle cx="207.05" cy="107.339" r="2" transform="rotate(-165 207.05 107.339)" fill="#222222"/>
<circle cx="212.744" cy="86.0891" r="2" transform="rotate(-165 212.744 86.0891)" fill="#222222"/>
<circle cx="218.438" cy="64.8386" r="2" transform="rotate(-165 218.438 64.8386)" fill="#222222"/>
<circle cx="176.344" cy="144.664" r="2" transform="rotate(-165 176.344 144.664)" fill="#222222"/>
<circle cx="182.038" cy="123.413" r="2" transform="rotate(-165 182.038 123.413)" fill="#222222"/>
<circle cx="187.732" cy="102.163" r="2" transform="rotate(-165 187.732 102.163)" fill="#222222"/>
<circle cx="193.426" cy="80.9126" r="2" transform="rotate(-165 193.426 80.9126)" fill="#222222"/>
<circle cx="199.12" cy="59.6623" r="2" transform="rotate(-165 199.12 59.6623)" fill="#222222"/>
<circle cx="157.025" cy="139.487" r="2" transform="rotate(-165 157.025 139.487)" fill="#222222"/>
<circle cx="162.719" cy="118.237" r="2" transform="rotate(-165 162.719 118.237)" fill="#222222"/>
<circle cx="168.413" cy="96.9865" r="2" transform="rotate(-165 168.413 96.9865)" fill="#222222"/>
<circle cx="174.107" cy="75.7363" r="2" transform="rotate(-165 174.107 75.7363)" fill="#222222"/>
<circle cx="179.801" cy="54.4858" r="2" transform="rotate(-165 179.801 54.4858)" fill="#222222"/>
<circle cx="137.707" cy="134.311" r="2" transform="rotate(-165 137.707 134.311)" fill="#222222"/>
<circle cx="143.401" cy="113.061" r="2" transform="rotate(-165 143.401 113.061)" fill="#222222"/>
<circle cx="149.095" cy="91.8103" r="2" transform="rotate(-165 149.095 91.8103)" fill="#222222"/>
<circle cx="154.789" cy="70.5598" r="2" transform="rotate(-165 154.789 70.5598)" fill="#222222"/>
<circle cx="160.483" cy="49.3095" r="2" transform="rotate(-165 160.483 49.3095)" fill="#222222"/>
<circle cx="118.388" cy="129.134" r="2" transform="rotate(-165 118.388 129.134)" fill="#222222"/>
<circle cx="124.082" cy="107.884" r="2" transform="rotate(-165 124.082 107.884)" fill="#222222"/>
<circle cx="129.776" cy="86.6338" r="2" transform="rotate(-165 129.776 86.6338)" fill="#222222"/>
<circle cx="135.47" cy="65.3835" r="2" transform="rotate(-165 135.47 65.3835)" fill="#222222"/>
<circle cx="141.164" cy="44.133" r="2" transform="rotate(-165 141.164 44.133)" fill="#222222"/>
<circle cx="99.0697" cy="123.958" r="2" transform="rotate(-165 99.0697 123.958)" fill="#222222"/>
<circle cx="104.764" cy="102.708" r="2" transform="rotate(-165 104.764 102.708)" fill="#222222"/>
<circle cx="110.458" cy="81.4575" r="2" transform="rotate(-165 110.458 81.4575)" fill="#222222"/>
<circle cx="116.152" cy="60.207" r="2" transform="rotate(-165 116.152 60.207)" fill="#222222"/>
<circle cx="121.846" cy="38.9568" r="2" transform="rotate(-165 121.846 38.9568)" fill="#222222"/>
<circle cx="79.7513" cy="118.782" r="2" transform="rotate(-165 79.7513 118.782)" fill="#222222"/>
<circle cx="85.4452" cy="97.5315" r="2" transform="rotate(-165 85.4452 97.5315)" fill="#222222"/>
<circle cx="91.1393" cy="76.281" r="2" transform="rotate(-165 91.1393 76.281)" fill="#222222"/>
<circle cx="96.8333" cy="55.0307" r="2" transform="rotate(-165 96.8333 55.0307)" fill="#222222"/>
<circle cx="102.527" cy="33.7802" r="2" transform="rotate(-165 102.527 33.7802)" fill="#222222"/>
<circle cx="60.4327" cy="113.605" r="2" transform="rotate(-165 60.4327 113.605)" fill="#222222"/>
<circle cx="66.1268" cy="92.3549" r="2" transform="rotate(-165 66.1268 92.3549)" fill="#222222"/>
<circle cx="71.8206" cy="71.1047" r="2" transform="rotate(-165 71.8206 71.1047)" fill="#222222"/>
<circle cx="77.5147" cy="49.8542" r="2" transform="rotate(-165 77.5147 49.8542)" fill="#222222"/>
<circle cx="83.2088" cy="28.604" r="2" transform="rotate(-165 83.2088 28.604)" fill="#222222"/>
<circle cx="41.1141" cy="108.429" r="2" transform="rotate(-165 41.1141 108.429)" fill="#222222"/>
<circle cx="46.8082" cy="87.1787" r="2" transform="rotate(-165 46.8082 87.1787)" fill="#222222"/>
<circle cx="52.5023" cy="65.9284" r="2" transform="rotate(-165 52.5023 65.9284)" fill="#222222"/>
<circle cx="58.1961" cy="44.678" r="2" transform="rotate(-165 58.1961 44.678)" fill="#222222"/>
<circle cx="63.8902" cy="23.4275" r="2" transform="rotate(-165 63.8902 23.4275)" fill="#222222"/>
<circle cx="21.7957" cy="103.253" r="2" transform="rotate(-165 21.7957 103.253)" fill="#222222"/>
<circle cx="27.4896" cy="82.0024" r="2" transform="rotate(-165 27.4896 82.0024)" fill="#222222"/>
<circle cx="33.1837" cy="60.7519" r="2" transform="rotate(-165 33.1837 60.7519)" fill="#222222"/>
<circle cx="38.8778" cy="39.5017" r="2" transform="rotate(-165 38.8778 39.5017)" fill="#222222"/>
<circle cx="44.5716" cy="18.2512" r="2" transform="rotate(-165 44.5716 18.2512)" fill="#222222"/>
<circle cx="2.47714" cy="98.0764" r="2" transform="rotate(-165 2.47714 98.0764)" fill="#222222"/>
<circle cx="8.17124" cy="76.8259" r="2" transform="rotate(-165 8.17124 76.8259)" fill="#222222"/>
<circle cx="13.8651" cy="55.5757" r="2" transform="rotate(-165 13.8651 55.5757)" fill="#222222"/>
<circle cx="19.5592" cy="34.3252" r="2" transform="rotate(-165 19.5592 34.3252)" fill="#222222"/>
<circle cx="25.2533" cy="13.0749" r="2" transform="rotate(-165 25.2533 13.0749)" fill="#222222"/>
</svg>
