<svg width="56" height="56" fill="none" xmlns="http://www.w3.org/2000/svg"><g clip-path="url(#clip0_893_173)"><path d="M28 51.333C15.113 51.333 4.667 40.887 4.667 28 4.667 15.113 15.113 4.667 28 4.667c12.887 0 23.333 10.446 23.333 23.333 0 12.887-10.446 23.333-23.333 23.333zm0-4.666a18.667 18.667 0 100-37.333 18.667 18.667 0 000 37.333zm-3.215-27.032l11.384 7.588a.934.934 0 010 1.554l-11.387 7.588a.934.934 0 01-1.449-.775V20.41a.933.933 0 011.452-.775z" fill="#fff"/></g><defs><clipPath id="clip0_893_173"><path fill="#fff" d="M0 0h56v56H0z"/></clipPath></defs></svg>