<svg width="302" height="173" fill="none" xmlns="http://www.w3.org/2000/svg"><path d="M259.009 168.995L.028 99.49 26.686 0 259.01 168.995z" fill="#84C4FF"/><circle cx="272.936" cy="170.546" r="2" transform="rotate(-165 272.936 170.546)" fill="#222"/><circle cx="278.63" cy="149.295" r="2" transform="rotate(-165 278.63 149.295)" fill="#222"/><circle cx="284.324" cy="128.045" r="2" transform="rotate(-165 284.324 128.045)" fill="#222"/><circle cx="290.018" cy="106.794" r="2" transform="rotate(-165 290.018 106.794)" fill="#222"/><circle cx="295.712" cy="85.544" r="2" transform="rotate(-165 295.712 85.544)" fill="#222"/><circle cx="266.124" cy="157.332" r="2" transform="rotate(-165 266.124 157.332)" fill="#222"/><circle cx="271.818" cy="136.082" r="2" transform="rotate(-165 271.818 136.082)" fill="#222"/><circle cx="277.512" cy="114.832" r="2" transform="rotate(-165 277.512 114.832)" fill="#222"/><circle cx="283.206" cy="93.581" r="2" transform="rotate(-165 283.206 93.581)" fill="#222"/><circle cx="288.9" cy="72.331" r="2" transform="rotate(-165 288.9 72.33)" fill="#222"/><circle cx="246.806" cy="152.156" r="2" transform="rotate(-165 246.806 152.156)" fill="#222"/><circle cx="252.5" cy="130.905" r="2" transform="rotate(-165 252.5 130.905)" fill="#222"/><circle cx="258.194" cy="109.655" r="2" transform="rotate(-165 258.194 109.655)" fill="#222"/><circle cx="263.888" cy="88.405" r="2" transform="rotate(-165 263.888 88.405)" fill="#222"/><circle cx="269.582" cy="67.154" r="2" transform="rotate(-165 269.582 67.154)" fill="#222"/><circle cx="227.487" cy="146.979" r="2" transform="rotate(-165 227.487 146.979)" fill="#222"/><circle cx="233.181" cy="125.729" r="2" transform="rotate(-165 233.181 125.729)" fill="#222"/><circle cx="238.875" cy="104.479" r="2" transform="rotate(-165 238.875 104.479)" fill="#222"/><circle cx="244.569" cy="83.228" r="2" transform="rotate(-165 244.569 83.228)" fill="#222"/><circle cx="250.263" cy="61.978" r="2" transform="rotate(-165 250.263 61.978)" fill="#222"/><circle cx="208.169" cy="141.803" r="2" transform="rotate(-165 208.169 141.803)" fill="#222"/><circle cx="213.863" cy="120.553" r="2" transform="rotate(-165 213.863 120.553)" fill="#222"/><circle cx="219.557" cy="99.302" r="2" transform="rotate(-165 219.557 99.302)" fill="#222"/><circle cx="225.251" cy="78.052" r="2" transform="rotate(-165 225.251 78.052)" fill="#222"/><circle cx="230.945" cy="56.802" r="2" transform="rotate(-165 230.945 56.802)" fill="#222"/><circle cx="188.85" cy="136.627" r="2" transform="rotate(-165 188.85 136.627)" fill="#222"/><circle cx="194.544" cy="115.376" r="2" transform="rotate(-165 194.544 115.376)" fill="#222"/><circle cx="200.238" cy="94.126" r="2" transform="rotate(-165 200.238 94.126)" fill="#222"/><circle cx="205.932" cy="72.876" r="2" transform="rotate(-165 205.932 72.876)" fill="#222"/><circle cx="211.626" cy="51.625" r="2" transform="rotate(-165 211.626 51.625)" fill="#222"/><circle cx="169.532" cy="131.45" r="2" transform="rotate(-165 169.532 131.45)" fill="#222"/><circle cx="175.226" cy="110.2" r="2" transform="rotate(-165 175.226 110.2)" fill="#222"/><circle cx="180.92" cy="88.95" r="2" transform="rotate(-165 180.92 88.95)" fill="#222"/><circle cx="186.614" cy="67.699" r="2" transform="rotate(-165 186.614 67.7)" fill="#222"/><circle cx="192.308" cy="46.449" r="2" transform="rotate(-165 192.308 46.449)" fill="#222"/><circle cx="150.213" cy="126.274" r="2" transform="rotate(-165 150.213 126.274)" fill="#222"/><circle cx="155.907" cy="105.024" r="2" transform="rotate(-165 155.907 105.024)" fill="#222"/><circle cx="161.601" cy="83.773" r="2" transform="rotate(-165 161.601 83.773)" fill="#222"/><circle cx="167.295" cy="62.523" r="2" transform="rotate(-165 167.295 62.523)" fill="#222"/><circle cx="172.989" cy="41.272" r="2" transform="rotate(-165 172.989 41.272)" fill="#222"/><circle cx="130.895" cy="121.098" r="2" transform="rotate(-165 130.895 121.098)" fill="#222"/><circle cx="136.588" cy="99.847" r="2" transform="rotate(-165 136.588 99.847)" fill="#222"/><circle cx="142.283" cy="78.597" r="2" transform="rotate(-165 142.283 78.597)" fill="#222"/><circle cx="147.977" cy="57.346" r="2" transform="rotate(-165 147.977 57.346)" fill="#222"/><circle cx="153.671" cy="36.096" r="2" transform="rotate(-165 153.671 36.096)" fill="#222"/><circle cx="111.576" cy="115.921" r="2" transform="rotate(-165 111.576 115.921)" fill="#222"/><circle cx="117.27" cy="94.671" r="2" transform="rotate(-165 117.27 94.67)" fill="#222"/><circle cx="122.964" cy="73.42" r="2" transform="rotate(-165 122.964 73.42)" fill="#222"/><circle cx="128.658" cy="52.17" r="2" transform="rotate(-165 128.658 52.17)" fill="#222"/><circle cx="134.352" cy="30.92" r="2" transform="rotate(-165 134.352 30.92)" fill="#222"/><circle cx="92.257" cy="110.745" r="2" transform="rotate(-165 92.257 110.745)" fill="#222"/><circle cx="97.951" cy="89.494" r="2" transform="rotate(-165 97.951 89.494)" fill="#222"/><circle cx="103.646" cy="68.244" r="2" transform="rotate(-165 103.646 68.244)" fill="#222"/><circle cx="109.339" cy="46.994" r="2" transform="rotate(-165 109.339 46.994)" fill="#222"/><circle cx="115.034" cy="25.743" r="2" transform="rotate(-165 115.034 25.743)" fill="#222"/><circle cx="72.939" cy="105.568" r="2" transform="rotate(-165 72.94 105.568)" fill="#222"/><circle cx="78.633" cy="84.318" r="2" transform="rotate(-165 78.633 84.318)" fill="#222"/><circle cx="84.327" cy="63.068" r="2" transform="rotate(-165 84.327 63.068)" fill="#222"/><circle cx="90.021" cy="41.817" r="2" transform="rotate(-165 90.021 41.817)" fill="#222"/><circle cx="95.715" cy="20.567" r="2" transform="rotate(-165 95.715 20.567)" fill="#222"/><circle cx="53.62" cy="100.392" r="2" transform="rotate(-165 53.62 100.392)" fill="#222"/><circle cx="59.315" cy="79.142" r="2" transform="rotate(-165 59.315 79.142)" fill="#222"/><circle cx="65.008" cy="57.891" r="2" transform="rotate(-165 65.008 57.891)" fill="#222"/><circle cx="70.703" cy="36.641" r="2" transform="rotate(-165 70.703 36.64)" fill="#222"/><circle cx="76.397" cy="15.391" r="2" transform="rotate(-165 76.397 15.39)" fill="#222"/><circle cx="34.302" cy="95.216" r="2" transform="rotate(-165 34.302 95.216)" fill="#222"/><circle cx="39.996" cy="73.965" r="2" transform="rotate(-165 39.996 73.965)" fill="#222"/><circle cx="45.69" cy="52.715" r="2" transform="rotate(-165 45.69 52.715)" fill="#222"/><circle cx="51.384" cy="31.465" r="2" transform="rotate(-165 51.384 31.465)" fill="#222"/><circle cx="57.078" cy="10.214" r="2" transform="rotate(-165 57.078 10.214)" fill="#222"/><circle cx="14.983" cy="90.039" r="2" transform="rotate(-165 14.983 90.04)" fill="#222"/><circle cx="20.677" cy="68.789" r="2" transform="rotate(-165 20.677 68.789)" fill="#222"/><circle cx="26.371" cy="47.538" r="2" transform="rotate(-165 26.371 47.538)" fill="#222"/><circle cx="32.066" cy="26.288" r="2" transform="rotate(-165 32.066 26.288)" fill="#222"/><circle cx="37.759" cy="5.038" r="2" transform="rotate(-165 37.76 5.038)" fill="#222"/><circle cx="253.618" cy="165.369" r="2" transform="rotate(-165 253.618 165.369)" fill="#222"/><circle cx="259.312" cy="144.119" r="2" transform="rotate(-165 259.312 144.119)" fill="#222"/><circle cx="265.006" cy="122.869" r="2" transform="rotate(-165 265.006 122.869)" fill="#222"/><circle cx="270.7" cy="101.618" r="2" transform="rotate(-165 270.7 101.618)" fill="#222"/><circle cx="276.394" cy="80.368" r="2" transform="rotate(-165 276.394 80.368)" fill="#222"/><circle cx="234.299" cy="160.193" r="2" transform="rotate(-165 234.299 160.193)" fill="#222"/><circle cx="239.993" cy="138.943" r="2" transform="rotate(-165 239.993 138.943)" fill="#222"/><circle cx="245.687" cy="117.692" r="2" transform="rotate(-165 245.687 117.692)" fill="#222"/><circle cx="251.381" cy="96.442" r="2" transform="rotate(-165 251.381 96.442)" fill="#222"/><circle cx="257.076" cy="75.191" r="2" transform="rotate(-165 257.076 75.191)" fill="#222"/><circle cx="214.981" cy="155.017" r="2" transform="rotate(-165 214.981 155.017)" fill="#222"/><circle cx="220.675" cy="133.766" r="2" transform="rotate(-165 220.675 133.766)" fill="#222"/><circle cx="226.369" cy="112.516" r="2" transform="rotate(-165 226.369 112.516)" fill="#222"/><circle cx="232.063" cy="91.265" r="2" transform="rotate(-165 232.063 91.265)" fill="#222"/><circle cx="237.757" cy="70.015" r="2" transform="rotate(-165 237.757 70.015)" fill="#222"/><circle cx="195.662" cy="149.84" r="2" transform="rotate(-165 195.662 149.84)" fill="#222"/><circle cx="201.356" cy="128.59" r="2" transform="rotate(-165 201.356 128.59)" fill="#222"/><circle cx="207.05" cy="107.339" r="2" transform="rotate(-165 207.05 107.339)" fill="#222"/><circle cx="212.744" cy="86.089" r="2" transform="rotate(-165 212.744 86.09)" fill="#222"/><circle cx="218.438" cy="64.839" r="2" transform="rotate(-165 218.438 64.839)" fill="#222"/><circle cx="176.344" cy="144.664" r="2" transform="rotate(-165 176.344 144.664)" fill="#222"/><circle cx="182.038" cy="123.413" r="2" transform="rotate(-165 182.038 123.413)" fill="#222"/><circle cx="187.732" cy="102.163" r="2" transform="rotate(-165 187.732 102.163)" fill="#222"/><circle cx="193.426" cy="80.913" r="2" transform="rotate(-165 193.426 80.913)" fill="#222"/><circle cx="199.12" cy="59.662" r="2" transform="rotate(-165 199.12 59.662)" fill="#222"/><circle cx="157.025" cy="139.487" r="2" transform="rotate(-165 157.025 139.487)" fill="#222"/><circle cx="162.719" cy="118.237" r="2" transform="rotate(-165 162.719 118.237)" fill="#222"/><circle cx="168.413" cy="96.987" r="2" transform="rotate(-165 168.413 96.987)" fill="#222"/><circle cx="174.107" cy="75.736" r="2" transform="rotate(-165 174.107 75.736)" fill="#222"/><circle cx="179.801" cy="54.486" r="2" transform="rotate(-165 179.801 54.486)" fill="#222"/><circle cx="137.707" cy="134.311" r="2" transform="rotate(-165 137.707 134.311)" fill="#222"/><circle cx="143.401" cy="113.061" r="2" transform="rotate(-165 143.401 113.061)" fill="#222"/><circle cx="149.095" cy="91.81" r="2" transform="rotate(-165 149.095 91.81)" fill="#222"/><circle cx="154.789" cy="70.56" r="2" transform="rotate(-165 154.789 70.56)" fill="#222"/><circle cx="160.483" cy="49.309" r="2" transform="rotate(-165 160.483 49.31)" fill="#222"/><circle cx="118.388" cy="129.134" r="2" transform="rotate(-165 118.388 129.134)" fill="#222"/><circle cx="124.082" cy="107.884" r="2" transform="rotate(-165 124.082 107.884)" fill="#222"/><circle cx="129.776" cy="86.634" r="2" transform="rotate(-165 129.776 86.634)" fill="#222"/><circle cx="135.47" cy="65.383" r="2" transform="rotate(-165 135.47 65.383)" fill="#222"/><circle cx="141.164" cy="44.133" r="2" transform="rotate(-165 141.164 44.133)" fill="#222"/><circle cx="99.07" cy="123.958" r="2" transform="rotate(-165 99.07 123.958)" fill="#222"/><circle cx="104.764" cy="102.708" r="2" transform="rotate(-165 104.764 102.708)" fill="#222"/><circle cx="110.458" cy="81.457" r="2" transform="rotate(-165 110.458 81.457)" fill="#222"/><circle cx="116.152" cy="60.207" r="2" transform="rotate(-165 116.152 60.207)" fill="#222"/><circle cx="121.846" cy="38.957" r="2" transform="rotate(-165 121.846 38.957)" fill="#222"/><circle cx="79.751" cy="118.782" r="2" transform="rotate(-165 79.751 118.782)" fill="#222"/><circle cx="85.445" cy="97.531" r="2" transform="rotate(-165 85.445 97.531)" fill="#222"/><circle cx="91.139" cy="76.281" r="2" transform="rotate(-165 91.14 76.281)" fill="#222"/><circle cx="96.833" cy="55.031" r="2" transform="rotate(-165 96.833 55.03)" fill="#222"/><circle cx="102.527" cy="33.78" r="2" transform="rotate(-165 102.527 33.78)" fill="#222"/><circle cx="60.433" cy="113.605" r="2" transform="rotate(-165 60.433 113.605)" fill="#222"/><circle cx="66.127" cy="92.355" r="2" transform="rotate(-165 66.127 92.355)" fill="#222"/><circle cx="71.821" cy="71.105" r="2" transform="rotate(-165 71.82 71.105)" fill="#222"/><circle cx="77.515" cy="49.854" r="2" transform="rotate(-165 77.515 49.854)" fill="#222"/><circle cx="83.209" cy="28.604" r="2" transform="rotate(-165 83.209 28.604)" fill="#222"/><circle cx="41.114" cy="108.429" r="2" transform="rotate(-165 41.114 108.429)" fill="#222"/><circle cx="46.808" cy="87.179" r="2" transform="rotate(-165 46.808 87.179)" fill="#222"/><circle cx="52.502" cy="65.928" r="2" transform="rotate(-165 52.502 65.928)" fill="#222"/><circle cx="58.196" cy="44.678" r="2" transform="rotate(-165 58.196 44.678)" fill="#222"/><circle cx="63.89" cy="23.427" r="2" transform="rotate(-165 63.89 23.427)" fill="#222"/><circle cx="21.796" cy="103.253" r="2" transform="rotate(-165 21.796 103.253)" fill="#222"/><circle cx="27.49" cy="82.002" r="2" transform="rotate(-165 27.49 82.002)" fill="#222"/><circle cx="33.184" cy="60.752" r="2" transform="rotate(-165 33.184 60.752)" fill="#222"/><circle cx="38.878" cy="39.502" r="2" transform="rotate(-165 38.878 39.502)" fill="#222"/><circle cx="44.572" cy="18.251" r="2" transform="rotate(-165 44.572 18.251)" fill="#222"/><circle cx="2.477" cy="98.076" r="2" transform="rotate(-165 2.477 98.076)" fill="#222"/><circle cx="8.171" cy="76.826" r="2" transform="rotate(-165 8.171 76.826)" fill="#222"/><circle cx="13.865" cy="55.576" r="2" transform="rotate(-165 13.865 55.576)" fill="#222"/><circle cx="19.559" cy="34.325" r="2" transform="rotate(-165 19.56 34.325)" fill="#222"/><circle cx="25.253" cy="13.075" r="2" transform="rotate(-165 25.253 13.075)" fill="#222"/></svg>