<svg width="302" height="173" fill="none" xmlns="http://www.w3.org/2000/svg"><path d="M42 4l258.981 69.505-26.658 99.49L42 4z" fill="#FFA3A3"/><circle cx="28.072" cy="2.449" r="2" transform="rotate(15 28.072 2.45)" fill="#222"/><circle cx="22.379" cy="23.7" r="2" transform="rotate(15 22.379 23.7)" fill="#222"/><circle cx="16.684" cy="44.95" r="2" transform="rotate(15 16.684 44.95)" fill="#222"/><circle cx="10.99" cy="66.201" r="2" transform="rotate(15 10.99 66.2)" fill="#222"/><circle cx="5.297" cy="87.451" r="2" transform="rotate(15 5.297 87.451)" fill="#222"/><circle cx="34.884" cy="15.663" r="2" transform="rotate(15 34.884 15.663)" fill="#222"/><circle cx="29.191" cy="36.913" r="2" transform="rotate(15 29.19 36.913)" fill="#222"/><circle cx="23.497" cy="58.164" r="2" transform="rotate(15 23.497 58.164)" fill="#222"/><circle cx="17.802" cy="79.414" r="2" transform="rotate(15 17.802 79.414)" fill="#222"/><circle cx="12.108" cy="100.664" r="2" transform="rotate(15 12.108 100.664)" fill="#222"/><circle cx="54.203" cy="20.839" r="2" transform="rotate(15 54.203 20.84)" fill="#222"/><circle cx="48.509" cy="42.09" r="2" transform="rotate(15 48.509 42.09)" fill="#222"/><circle cx="42.815" cy="63.34" r="2" transform="rotate(15 42.815 63.34)" fill="#222"/><circle cx="37.121" cy="84.59" r="2" transform="rotate(15 37.121 84.59)" fill="#222"/><circle cx="31.427" cy="105.841" r="2" transform="rotate(15 31.427 105.841)" fill="#222"/><circle cx="73.522" cy="26.016" r="2" transform="rotate(15 73.522 26.016)" fill="#222"/><circle cx="67.828" cy="47.266" r="2" transform="rotate(15 67.828 47.266)" fill="#222"/><circle cx="62.133" cy="68.516" r="2" transform="rotate(15 62.133 68.516)" fill="#222"/><circle cx="56.44" cy="89.767" r="2" transform="rotate(15 56.44 89.767)" fill="#222"/><circle cx="50.746" cy="111.017" r="2" transform="rotate(15 50.746 111.017)" fill="#222"/><circle cx="92.84" cy="31.192" r="2" transform="rotate(15 92.84 31.192)" fill="#222"/><circle cx="87.146" cy="52.442" r="2" transform="rotate(15 87.146 52.442)" fill="#222"/><circle cx="81.452" cy="73.693" r="2" transform="rotate(15 81.452 73.693)" fill="#222"/><circle cx="75.758" cy="94.943" r="2" transform="rotate(15 75.758 94.943)" fill="#222"/><circle cx="70.064" cy="116.194" r="2" transform="rotate(15 70.064 116.194)" fill="#222"/><circle cx="112.159" cy="36.368" r="2" transform="rotate(15 112.159 36.368)" fill="#222"/><circle cx="106.465" cy="57.619" r="2" transform="rotate(15 106.465 57.619)" fill="#222"/><circle cx="100.771" cy="78.869" r="2" transform="rotate(15 100.771 78.87)" fill="#222"/><circle cx="95.077" cy="100.119" r="2" transform="rotate(15 95.077 100.119)" fill="#222"/><circle cx="89.382" cy="121.37" r="2" transform="rotate(15 89.382 121.37)" fill="#222"/><circle cx="131.477" cy="41.545" r="2" transform="rotate(15 131.477 41.545)" fill="#222"/><circle cx="125.783" cy="62.795" r="2" transform="rotate(15 125.783 62.795)" fill="#222"/><circle cx="120.089" cy="84.046" r="2" transform="rotate(15 120.089 84.046)" fill="#222"/><circle cx="114.395" cy="105.296" r="2" transform="rotate(15 114.395 105.296)" fill="#222"/><circle cx="108.701" cy="126.546" r="2" transform="rotate(15 108.701 126.546)" fill="#222"/><circle cx="150.796" cy="46.721" r="2" transform="rotate(15 150.796 46.721)" fill="#222"/><circle cx="145.102" cy="67.972" r="2" transform="rotate(15 145.102 67.972)" fill="#222"/><circle cx="139.408" cy="89.222" r="2" transform="rotate(15 139.408 89.222)" fill="#222"/><circle cx="133.714" cy="110.472" r="2" transform="rotate(15 133.714 110.472)" fill="#222"/><circle cx="128.02" cy="131.723" r="2" transform="rotate(15 128.02 131.723)" fill="#222"/><circle cx="170.114" cy="51.898" r="2" transform="rotate(15 170.114 51.898)" fill="#222"/><circle cx="164.42" cy="73.148" r="2" transform="rotate(15 164.42 73.148)" fill="#222"/><circle cx="158.726" cy="94.398" r="2" transform="rotate(15 158.726 94.398)" fill="#222"/><circle cx="153.032" cy="115.649" r="2" transform="rotate(15 153.032 115.649)" fill="#222"/><circle cx="147.338" cy="136.899" r="2" transform="rotate(15 147.338 136.899)" fill="#222"/><circle cx="189.433" cy="57.074" r="2" transform="rotate(15 189.433 57.074)" fill="#222"/><circle cx="183.739" cy="78.324" r="2" transform="rotate(15 183.739 78.324)" fill="#222"/><circle cx="178.045" cy="99.575" r="2" transform="rotate(15 178.045 99.575)" fill="#222"/><circle cx="172.351" cy="120.825" r="2" transform="rotate(15 172.351 120.825)" fill="#222"/><circle cx="166.657" cy="142.075" r="2" transform="rotate(15 166.657 142.075)" fill="#222"/><circle cx="208.751" cy="62.25" r="2" transform="rotate(15 208.751 62.25)" fill="#222"/><circle cx="203.057" cy="83.501" r="2" transform="rotate(15 203.057 83.5)" fill="#222"/><circle cx="197.363" cy="104.751" r="2" transform="rotate(15 197.363 104.751)" fill="#222"/><circle cx="191.669" cy="126.001" r="2" transform="rotate(15 191.669 126.001)" fill="#222"/><circle cx="185.975" cy="147.252" r="2" transform="rotate(15 185.975 147.252)" fill="#222"/><circle cx="228.07" cy="67.427" r="2" transform="rotate(15 228.07 67.427)" fill="#222"/><circle cx="222.376" cy="88.677" r="2" transform="rotate(15 222.376 88.677)" fill="#222"/><circle cx="216.682" cy="109.927" r="2" transform="rotate(15 216.682 109.927)" fill="#222"/><circle cx="210.988" cy="131.178" r="2" transform="rotate(15 210.988 131.178)" fill="#222"/><circle cx="205.294" cy="152.428" r="2" transform="rotate(15 205.294 152.428)" fill="#222"/><circle cx="247.388" cy="72.603" r="2" transform="rotate(15 247.388 72.603)" fill="#222"/><circle cx="241.694" cy="93.853" r="2" transform="rotate(15 241.694 93.853)" fill="#222"/><circle cx="236" cy="115.104" r="2" transform="rotate(15 236 115.104)" fill="#222"/><circle cx="230.306" cy="136.354" r="2" transform="rotate(15 230.306 136.354)" fill="#222"/><circle cx="224.612" cy="157.605" r="2" transform="rotate(15 224.612 157.605)" fill="#222"/><circle cx="266.707" cy="77.779" r="2" transform="rotate(15 266.707 77.78)" fill="#222"/><circle cx="261.013" cy="99.03" r="2" transform="rotate(15 261.013 99.03)" fill="#222"/><circle cx="255.319" cy="120.28" r="2" transform="rotate(15 255.319 120.28)" fill="#222"/><circle cx="249.625" cy="141.531" r="2" transform="rotate(15 249.625 141.531)" fill="#222"/><circle cx="243.931" cy="162.781" r="2" transform="rotate(15 243.931 162.781)" fill="#222"/><circle cx="286.026" cy="82.956" r="2" transform="rotate(15 286.026 82.956)" fill="#222"/><circle cx="280.331" cy="104.206" r="2" transform="rotate(15 280.331 104.206)" fill="#222"/><circle cx="274.637" cy="125.457" r="2" transform="rotate(15 274.637 125.457)" fill="#222"/><circle cx="268.944" cy="146.707" r="2" transform="rotate(15 268.944 146.707)" fill="#222"/><circle cx="263.249" cy="167.957" r="2" transform="rotate(15 263.249 167.957)" fill="#222"/><circle cx="47.391" cy="7.626" r="2" transform="rotate(15 47.39 7.626)" fill="#222"/><circle cx="41.697" cy="28.876" r="2" transform="rotate(15 41.697 28.876)" fill="#222"/><circle cx="36.003" cy="50.127" r="2" transform="rotate(15 36.003 50.127)" fill="#222"/><circle cx="30.309" cy="71.377" r="2" transform="rotate(15 30.309 71.377)" fill="#222"/><circle cx="24.615" cy="92.627" r="2" transform="rotate(15 24.615 92.627)" fill="#222"/><circle cx="66.71" cy="12.802" r="2" transform="rotate(15 66.71 12.802)" fill="#222"/><circle cx="61.015" cy="34.053" r="2" transform="rotate(15 61.015 34.053)" fill="#222"/><circle cx="55.321" cy="55.303" r="2" transform="rotate(15 55.321 55.303)" fill="#222"/><circle cx="49.628" cy="76.553" r="2" transform="rotate(15 49.628 76.553)" fill="#222"/><circle cx="43.933" cy="97.804" r="2" transform="rotate(15 43.933 97.804)" fill="#222"/><circle cx="86.028" cy="17.979" r="2" transform="rotate(15 86.028 17.979)" fill="#222"/><circle cx="80.334" cy="39.229" r="2" transform="rotate(15 80.334 39.229)" fill="#222"/><circle cx="74.64" cy="60.479" r="2" transform="rotate(15 74.64 60.48)" fill="#222"/><circle cx="68.946" cy="81.73" r="2" transform="rotate(15 68.946 81.73)" fill="#222"/><circle cx="63.252" cy="102.98" r="2" transform="rotate(15 63.252 102.98)" fill="#222"/><circle cx="105.346" cy="23.155" r="2" transform="rotate(15 105.346 23.155)" fill="#222"/><circle cx="99.653" cy="44.405" r="2" transform="rotate(15 99.653 44.405)" fill="#222"/><circle cx="93.959" cy="65.656" r="2" transform="rotate(15 93.959 65.656)" fill="#222"/><circle cx="88.264" cy="86.906" r="2" transform="rotate(15 88.264 86.906)" fill="#222"/><circle cx="82.57" cy="108.156" r="2" transform="rotate(15 82.57 108.156)" fill="#222"/><circle cx="124.665" cy="28.331" r="2" transform="rotate(15 124.665 28.331)" fill="#222"/><circle cx="118.971" cy="49.582" r="2" transform="rotate(15 118.971 49.582)" fill="#222"/><circle cx="113.277" cy="70.832" r="2" transform="rotate(15 113.277 70.832)" fill="#222"/><circle cx="107.583" cy="92.082" r="2" transform="rotate(15 107.583 92.082)" fill="#222"/><circle cx="101.889" cy="113.333" r="2" transform="rotate(15 101.889 113.333)" fill="#222"/><circle cx="143.984" cy="33.508" r="2" transform="rotate(15 143.984 33.508)" fill="#222"/><circle cx="138.29" cy="54.758" r="2" transform="rotate(15 138.29 54.758)" fill="#222"/><circle cx="132.595" cy="76.008" r="2" transform="rotate(15 132.595 76.008)" fill="#222"/><circle cx="126.902" cy="97.259" r="2" transform="rotate(15 126.902 97.259)" fill="#222"/><circle cx="121.208" cy="118.509" r="2" transform="rotate(15 121.208 118.509)" fill="#222"/><circle cx="163.302" cy="38.684" r="2" transform="rotate(15 163.302 38.684)" fill="#222"/><circle cx="157.608" cy="59.934" r="2" transform="rotate(15 157.608 59.934)" fill="#222"/><circle cx="151.914" cy="81.185" r="2" transform="rotate(15 151.914 81.185)" fill="#222"/><circle cx="146.22" cy="102.435" r="2" transform="rotate(15 146.22 102.435)" fill="#222"/><circle cx="140.526" cy="123.686" r="2" transform="rotate(15 140.526 123.686)" fill="#222"/><circle cx="182.621" cy="43.861" r="2" transform="rotate(15 182.621 43.86)" fill="#222"/><circle cx="176.926" cy="65.111" r="2" transform="rotate(15 176.926 65.11)" fill="#222"/><circle cx="171.233" cy="86.361" r="2" transform="rotate(15 171.233 86.361)" fill="#222"/><circle cx="165.539" cy="107.612" r="2" transform="rotate(15 165.539 107.612)" fill="#222"/><circle cx="159.844" cy="128.862" r="2" transform="rotate(15 159.844 128.862)" fill="#222"/><circle cx="201.939" cy="49.037" r="2" transform="rotate(15 201.939 49.037)" fill="#222"/><circle cx="196.245" cy="70.287" r="2" transform="rotate(15 196.245 70.287)" fill="#222"/><circle cx="190.551" cy="91.538" r="2" transform="rotate(15 190.551 91.538)" fill="#222"/><circle cx="184.857" cy="112.788" r="2" transform="rotate(15 184.857 112.788)" fill="#222"/><circle cx="179.163" cy="134.038" r="2" transform="rotate(15 179.163 134.038)" fill="#222"/><circle cx="221.257" cy="54.213" r="2" transform="rotate(15 221.257 54.213)" fill="#222"/><circle cx="215.564" cy="75.464" r="2" transform="rotate(15 215.564 75.464)" fill="#222"/><circle cx="209.87" cy="96.714" r="2" transform="rotate(15 209.87 96.714)" fill="#222"/><circle cx="204.175" cy="117.964" r="2" transform="rotate(15 204.175 117.964)" fill="#222"/><circle cx="198.482" cy="139.215" r="2" transform="rotate(15 198.482 139.215)" fill="#222"/><circle cx="240.576" cy="59.39" r="2" transform="rotate(15 240.576 59.39)" fill="#222"/><circle cx="234.882" cy="80.64" r="2" transform="rotate(15 234.882 80.64)" fill="#222"/><circle cx="229.188" cy="101.89" r="2" transform="rotate(15 229.188 101.89)" fill="#222"/><circle cx="223.494" cy="123.141" r="2" transform="rotate(15 223.494 123.141)" fill="#222"/><circle cx="217.8" cy="144.391" r="2" transform="rotate(15 217.8 144.391)" fill="#222"/><circle cx="259.895" cy="64.566" r="2" transform="rotate(15 259.895 64.566)" fill="#222"/><circle cx="254.201" cy="85.816" r="2" transform="rotate(15 254.201 85.816)" fill="#222"/><circle cx="248.507" cy="107.067" r="2" transform="rotate(15 248.507 107.067)" fill="#222"/><circle cx="242.813" cy="128.317" r="2" transform="rotate(15 242.813 128.317)" fill="#222"/><circle cx="237.118" cy="149.568" r="2" transform="rotate(15 237.118 149.568)" fill="#222"/><circle cx="279.213" cy="69.742" r="2" transform="rotate(15 279.213 69.742)" fill="#222"/><circle cx="273.519" cy="90.993" r="2" transform="rotate(15 273.519 90.993)" fill="#222"/><circle cx="267.825" cy="112.243" r="2" transform="rotate(15 267.825 112.243)" fill="#222"/><circle cx="262.131" cy="133.494" r="2" transform="rotate(15 262.131 133.494)" fill="#222"/><circle cx="256.437" cy="154.744" r="2" transform="rotate(15 256.437 154.744)" fill="#222"/><circle cx="298.531" cy="74.919" r="2" transform="rotate(15 298.531 74.919)" fill="#222"/><circle cx="292.838" cy="96.169" r="2" transform="rotate(15 292.838 96.17)" fill="#222"/><circle cx="287.144" cy="117.42" r="2" transform="rotate(15 287.144 117.42)" fill="#222"/><circle cx="281.449" cy="138.67" r="2" transform="rotate(15 281.449 138.67)" fill="#222"/><circle cx="275.756" cy="159.92" r="2" transform="rotate(15 275.756 159.92)" fill="#222"/></svg>